<?xml version="1.0" standalone="no"?>
<!DOCTYPE svg PUBLIC "-//W3C//DTD SVG 20010904//EN"
 "http://www.w3.org/TR/2001/REC-SVG-20010904/DTD/svg10.dtd">
<svg version="1.0" xmlns="http://www.w3.org/2000/svg"
 width="1024.000000pt" height="500.000000pt" viewBox="0 0 1024.000000 500.000000"
 preserveAspectRatio="xMidYMid meet">

<g transform="translate(0.000000,500.000000) scale(0.100000,-0.100000)"
fill="#000000" stroke="none">
<path d="M0 2500 l0 -2500 5120 0 5120 0 0 2500 0 2500 -5120 0 -5120 0 0
-2500z m5078 1429 c26 -12 67 -30 92 -41 63 -27 111 -48 204 -89 l81 -35 5
-65 c3 -35 10 -64 15 -64 6 0 31 11 58 23 l47 23 55 -26 c31 -14 57 -25 60
-25 2 0 32 -13 67 -29 35 -16 95 -43 133 -60 39 -17 81 -37 95 -44 l25 -13 0
-279 0 -280 -50 -25 c-91 -45 -342 -157 -365 -162 -13 -3 -16 35 -20 276 l-5
280 -30 17 c-16 10 -42 21 -57 24 l-28 7 0 -341 0 -342 -35 -15 c-20 -8 -65
-28 -101 -44 -35 -17 -66 -30 -69 -30 -2 0 -48 -20 -101 -45 -54 -25 -105 -44
-113 -43 -14 3 -16 62 -19 548 l-2 545 -28 12 c-15 7 -49 22 -77 34 -27 12
-72 31 -100 44 -27 12 -79 35 -115 50 -102 44 -103 48 -25 84 36 17 68 31 71
31 2 0 38 16 80 35 41 19 77 35 80 35 2 0 23 9 47 19 36 16 62 27 75 30 2 1
24 -9 50 -20z m-507 -489 c52 -23 108 -47 124 -55 17 -7 59 -25 95 -40 36 -15
75 -33 88 -41 l22 -14 0 -445 0 -444 -66 -31 c-36 -16 -67 -30 -69 -30 -3 0
-33 -13 -67 -29 -35 -15 -85 -38 -113 -51 -27 -12 -63 -28 -79 -36 -16 -7 -32
-11 -36 -9 -5 3 -8 204 -8 447 -1 416 -2 442 -19 452 -10 6 -47 24 -83 39 -36
16 -89 39 -118 53 -28 13 -80 36 -115 50 -34 14 -66 30 -71 35 -6 5 18 21 60
40 131 60 339 148 350 149 6 0 53 -18 105 -40z m-923 -1957 l-3 -418 -155 0
-155 0 -2 385 c-1 212 1 400 4 418 l5 32 154 0 154 0 -2 -417z m513 329 c46
-48 127 -132 179 -186 l95 -99 7 46 c3 25 5 101 3 169 -2 68 -2 131 1 141 5
15 21 17 153 17 l148 0 5 -87 c3 -49 5 -149 3 -223 -2 -74 0 -141 4 -148 5 -8
18 7 37 43 68 131 189 205 334 205 73 0 119 -12 163 -43 16 -11 32 -16 37 -11
10 11 60 210 60 242 0 22 1 22 141 22 l141 0 -5 -37 c-7 -46 -22 -124 -35
-178 -5 -22 -20 -83 -32 -135 -12 -52 -26 -113 -31 -135 -15 -77 -28 -131 -53
-234 -14 -57 -26 -106 -26 -107 0 -2 -58 -4 -130 -4 -123 0 -130 1 -130 20 0
23 -12 25 -43 8 -102 -57 -220 -48 -318 24 -17 13 -48 49 -69 81 -21 32 -41
54 -44 48 -4 -6 -5 -50 -4 -98 l3 -88 -130 -3 -131 -3 -130 138 c-72 76 -147
157 -168 181 -63 70 -65 65 -68 -135 l-3 -178 -155 0 -155 0 -3 405 c-1 223 0
411 3 417 3 10 39 13 133 13 l128 0 85 -88z m1936 1 c-4 -21 -11 -58 -17 -83
-6 -25 -15 -65 -20 -90 -5 -25 -13 -63 -18 -85 -5 -22 -17 -74 -26 -115 -10
-41 -22 -91 -28 -111 -6 -20 -7 -42 -4 -48 5 -7 70 -11 201 -11 l195 0 -7 -32
c-4 -18 -14 -62 -22 -98 l-16 -65 -347 -3 c-387 -3 -361 -8 -339 64 5 16 13
52 19 79 23 102 52 231 61 265 5 19 16 67 25 105 37 173 49 221 57 243 8 21
13 22 150 22 l142 0 -6 -37z m1073 -158 c0 -13 -4 -34 -9 -47 -5 -13 -12 -34
-15 -48 -4 -17 -59 -68 -166 -155 -87 -71 -158 -134 -156 -140 1 -6 55 -11
127 -13 68 -1 127 -6 131 -10 6 -6 -10 -96 -28 -159 -3 -10 -78 -13 -335 -13
l-331 0 6 28 c4 15 11 47 16 71 6 24 11 45 13 46 1 1 47 39 102 84 55 46 126
104 157 129 31 26 57 53 57 60 1 9 -29 12 -119 12 -77 0 -120 4 -120 10 0 10
27 129 36 158 3 9 75 12 319 12 l315 0 0 -25z m-5601 -738 c38 -13 67 -47 77
-89 6 -27 5 -28 -35 -28 -32 0 -43 5 -52 23 -16 30 -28 37 -70 37 -73 0 -74
-47 -1 -71 80 -26 132 -59 149 -95 15 -31 16 -39 3 -76 -23 -63 -57 -83 -143
-83 -88 0 -129 21 -157 80 -28 59 -26 65 23 65 37 0 44 -4 57 -33 19 -40 64
-56 106 -35 20 9 29 21 29 38 0 21 -10 28 -78 55 -90 35 -127 69 -127 119 0
37 31 83 64 96 31 13 116 11 155 -3z m7765 -1 c34 -14 76 -59 76 -82 0 -7 -15
-16 -34 -19 -26 -5 -41 -2 -64 15 -33 24 -87 29 -122 10 -26 -14 -50 -67 -50
-110 0 -45 34 -105 68 -119 55 -23 154 14 139 52 -5 12 -19 17 -52 17 -44 0
-45 0 -45 34 l0 33 86 7 c48 3 88 5 89 4 1 -2 5 -37 9 -79 l7 -76 -39 -26
c-110 -73 -244 -59 -310 32 -56 77 -51 190 11 257 54 58 158 81 231 50z
m-7450 -22 c69 -5 83 -10 107 -34 37 -36 45 -74 28 -123 -22 -64 -57 -82 -144
-80 l-74 2 -6 -32 c-2 -18 -6 -50 -7 -72 l-3 -40 -40 3 c-22 2 -41 5 -42 5 0
1 5 74 13 162 7 88 13 175 14 193 0 31 1 32 38 27 20 -2 73 -7 116 -11z m7086
4 c4 -23 30 -341 30 -360 0 -26 -3 -28 -43 -28 l-43 0 -83 112 -83 113 7 -114
c8 -123 6 -131 -46 -131 l-26 0 -12 168 c-16 240 -19 222 29 222 40 0 42 -2
123 -112 45 -61 83 -105 85 -97 1 8 -1 61 -6 117 -4 57 -6 105 -3 107 4 5 71
7 71 3z m-6667 -34 l87 -6 0 -35 0 -35 -104 7 -103 7 -5 -34 c-3 -19 -1 -36 6
-40 6 -4 40 -8 76 -8 93 0 110 -7 110 -41 0 -15 -3 -30 -7 -32 -5 -3 -49 -2
-99 2 l-92 6 -6 -44 c-3 -24 -4 -46 -1 -49 2 -3 37 -6 77 -9 134 -7 138 -9
138 -49 l0 -36 -47 6 c-27 3 -96 8 -156 12 l-107 6 4 32 c3 17 8 78 11 136 3
58 8 131 12 163 l6 59 56 -6 c31 -3 95 -8 144 -12z m6288 -16 c0 -13 6 -98 12
-190 14 -183 15 -178 -44 -178 -23 0 -29 4 -30 23 0 12 -6 98 -12 190 -7 93
-10 170 -8 173 2 2 22 4 43 4 33 0 38 -3 39 -22z m-156 -85 c4 -54 8 -140 9
-193 l1 -95 -40 0 -40 0 -5 80 c-3 55 -9 80 -17 79 -7 -1 -40 -2 -74 -2 l-61
-2 3 -85 4 -85 -41 0 -41 0 -7 113 c-4 61 -9 146 -12 188 l-6 76 37 7 c20 4
39 5 42 2 3 -3 8 -37 11 -76 l5 -70 36 0 c20 0 53 3 75 7 l39 6 -7 67 c-3 37
-3 70 1 73 3 4 23 7 44 7 l37 0 7 -97z m-5772 80 l97 -6 0 -35 0 -35 -104 5
c-100 6 -104 5 -110 -16 -13 -50 -9 -56 42 -56 26 0 71 -3 100 -6 52 -7 52 -7
52 -41 l0 -35 -99 7 -98 7 -7 -32 c-13 -68 -12 -70 52 -70 31 0 81 -3 110 -6
51 -7 52 -7 52 -41 l0 -35 -107 6 c-177 11 -204 16 -199 34 2 10 7 78 11 152
3 74 8 152 11 173 6 37 6 37 52 37 26 0 91 -3 145 -7z m5397 -37 c0 -34 0 -35
-55 -41 l-55 -7 1 -52 c1 -28 4 -97 8 -153 7 -111 6 -113 -48 -113 -28 0 -28
1 -35 77 -3 42 -6 103 -6 137 0 34 -3 71 -6 84 -6 21 -10 22 -56 16 -38 -5
-52 -3 -59 7 -13 21 -11 59 4 60 19 2 227 15 270 17 36 2 37 1 37 -32z m-4983
-3 c99 -52 112 -243 22 -329 -29 -28 -33 -29 -147 -32 -64 -1 -122 1 -127 5
-7 5 -7 71 -1 197 l9 189 103 -6 c75 -3 114 -10 141 -24z m4653 11 c0 -3 -30
-55 -66 -117 l-66 -111 7 -78 6 -78 -30 -1 c-17 -1 -37 -2 -43 -3 -9 -1 -15
24 -18 80 l-6 81 -72 102 c-39 56 -72 106 -72 112 0 5 20 9 45 9 44 0 45 -1
91 -70 26 -38 48 -70 50 -70 2 0 16 24 30 53 48 93 52 97 100 97 24 0 44 -3
44 -6z m-4128 -24 c140 -39 143 -312 3 -365 -36 -14 -61 -16 -141 -10 l-97 7
7 186 c4 102 9 188 11 191 5 9 177 2 217 -9z m3693 -4 c41 -17 55 -42 55 -96
0 -52 -13 -76 -52 -96 l-31 -16 25 -21 c14 -12 44 -48 67 -79 l42 -58 -28 0
c-15 0 -37 -3 -49 -6 -16 -4 -31 8 -74 65 -47 62 -86 91 -121 91 -5 0 -9 -35
-9 -79 l0 -78 -37 -6 c-20 -4 -39 -5 -40 -3 -2 2 -7 89 -10 194 l-6 191 44 4
c105 9 191 6 224 -7z m-3302 -2 l77 -7 0 -35 0 -35 -105 5 -105 6 0 -39 0 -39
88 0 c48 0 93 -4 100 -9 8 -5 12 -21 10 -37 l-3 -29 -97 4 c-92 3 -98 2 -98
-17 0 -11 -3 -34 -6 -51 l-6 -31 111 0 111 0 0 -41 0 -42 -37 7 c-21 3 -89 6
-150 6 l-113 0 0 83 c0 45 3 133 7 195 l6 112 67 0 c37 0 101 -3 143 -6z
m2957 -28 l0 -33 -61 -7 c-34 -3 -82 -6 -105 -6 -44 0 -44 0 -44 -35 l0 -35
99 0 c98 0 99 0 105 -25 10 -39 0 -45 -68 -45 -35 0 -78 -3 -95 -6 -29 -6 -31
-9 -31 -50 l0 -44 110 0 110 0 0 -33 0 -34 -147 -6 c-81 -3 -149 -4 -151 -2
-2 2 -7 89 -10 194 l-5 190 79 4 c43 1 109 4 147 5 l67 2 0 -34z m-2582 18
c52 -7 52 -7 52 -42 l0 -35 -95 5 -95 5 0 -43 0 -44 78 0 c43 0 81 -2 84 -5 3
-3 2 -20 -1 -37 l-6 -31 -77 2 -77 2 -7 -80 -7 -81 -38 0 -39 0 0 98 c0 53 3
141 7 195 l6 97 81 0 c45 0 105 -3 134 -6z m2217 -96 c-18 -57 -47 -145 -65
-195 l-33 -93 -46 0 -46 0 -67 173 c-37 94 -70 180 -74 190 -5 15 0 17 39 17
l46 0 41 -107 c23 -60 46 -119 52 -133 9 -22 15 -9 54 113 l45 137 43 0 44 0
-33 -102z m-2015 -11 c0 -57 -3 -145 -6 -195 l-7 -92 -38 0 -39 0 0 195 0 195
45 0 45 0 0 -103z m222 -18 l73 -121 5 119 5 118 35 0 35 0 3 -192 2 -193 -44
0 -44 0 -63 103 c-92 152 -89 151 -89 14 l0 -117 -40 0 -40 0 0 128 c0 70 3
157 7 195 l6 67 38 0 c37 0 38 -1 111 -121z m848 96 c32 -16 66 -77 55 -95 -4
-6 -21 -10 -38 -10 -24 0 -40 8 -59 30 -29 33 -71 40 -103 16 -30 -21 -11 -44
52 -61 91 -25 112 -35 138 -67 49 -58 18 -150 -60 -176 -53 -18 -150 -10 -184
15 -30 22 -66 88 -56 103 10 16 85 13 85 -4 0 -28 52 -58 88 -52 77 12 84 63
12 84 -88 25 -133 47 -153 74 -41 55 -14 130 54 156 42 15 126 9 169 -13z
m578 -7 l-3 -33 -102 -3 -103 -3 0 -39 0 -40 101 0 100 0 -3 -32 -3 -33 -97
-3 -98 -3 0 -49 0 -50 110 0 110 0 0 -35 0 -35 -155 0 -155 0 0 195 0 195 151
0 150 0 -3 -32z m-888 -13 l0 -35 -105 0 -105 0 0 -35 0 -34 98 -3 97 -3 0
-35 0 -35 -98 0 -97 0 0 -47 0 -47 108 -3 107 -3 3 -32 3 -33 -155 0 -156 0 0
190 0 190 150 0 150 0 0 -35z"/>
<path d="M5089 1459 c-26 -27 -29 -38 -29 -93 0 -78 23 -106 89 -106 84 0 131
48 131 135 0 68 -30 95 -106 95 -50 0 -59 -3 -85 -31z"/>
<path d="M1810 797 c0 -20 -3 -42 -6 -51 -5 -14 3 -16 53 -16 63 0 83 11 83
46 0 30 -17 41 -77 49 l-53 7 0 -35z"/>
<path d="M2916 749 c-2 -8 -7 -65 -9 -126 l-6 -113 55 0 c31 0 64 4 74 10 24
13 40 62 40 127 0 44 -5 58 -25 78 -13 14 -33 25 -43 25 -11 0 -33 3 -51 6
-21 5 -32 2 -35 -7z"/>
<path d="M3458 613 c-3 -65 -4 -119 -3 -121 1 -1 25 -5 52 -8 42 -6 53 -3 77
17 23 20 28 35 33 86 10 105 -20 143 -111 143 l-43 0 -5 -117z"/>
<path d="M7137 723 c-26 -4 -28 -7 -25 -46 l3 -42 64 1 c64 1 91 16 91 50 0
37 -46 50 -133 37z"/>
</g>
</svg>
